<?xml version="1.0" encoding="UTF-8" standalone="no"?>
<!-- Created with Inkscape (http://www.inkscape.org/) -->

<svg
   version="1.1"
   id="svg1"
   width="516.18927"
   height="63.862419"
   viewBox="0 0 516.18927 63.862419"
   sodipodi:docname="white2_g49.svg"
   inkscape:version="1.4.2 (f4327f4, 2025-05-13)"
   xmlns:inkscape="http://www.inkscape.org/namespaces/inkscape"
   xmlns:sodipodi="http://sodipodi.sourceforge.net/DTD/sodipodi-0.dtd"
   xmlns="http://www.w3.org/2000/svg"
   xmlns:svg="http://www.w3.org/2000/svg">
  <sodipodi:namedview
     id="namedview1"
     pagecolor="#505050"
     bordercolor="#ffffff"
     borderopacity="1"
     inkscape:showpageshadow="0"
     inkscape:pageopacity="0"
     inkscape:pagecheckerboard="1"
     inkscape:deskcolor="#505050"
     inkscape:export-bgcolor="#333333da"
     inkscape:zoom="3.4347866"
     inkscape:cx="258.09464"
     inkscape:cy="31.87971"
     inkscape:window-width="1920"
     inkscape:window-height="1001"
     inkscape:window-x="-9"
     inkscape:window-y="-9"
     inkscape:window-maximized="1"
     inkscape:current-layer="svg1" />
  <defs
     id="defs1" />
  <g
     id="g49"
     style="fill:#f2f2f2"
     transform="translate(-565.41518,-143.33875)">
    <path
       d="m 1040.5201,201.74269 c -21.0258,0 -38.229,0.13667 -38.229,0.30345 0,0.16678 0.2912,0.41184 0.6461,0.54526 0.3548,0.13343 17.5564,0.24299 38.2272,0.24299 32.7625,0 37.585,-0.0706 37.585,-0.54642 0,-0.47598 -4.8933,-0.54528 -38.2293,-0.54528 z"
       style="fill:#f2f2f2;stroke-width:0.593442"
       id="path48" />
    <path
       d="m 744.90914,201.74269 c -20.72824,0 -37.91889,0.14053 -38.20198,0.31275 -0.2831,0.17222 -0.23724,0.41845 0.10316,0.54643 0.34039,0.12798 17.53283,0.23252 38.20379,0.23252 32.76239,0 37.58302,-0.0706 37.58302,-0.54642 0,-0.47585 -4.83299,-0.54528 -37.68799,-0.54528 z"
       style="fill:#f2f2f2;stroke-width:0.593442"
       id="path47" />
    <path
       d="m 948.09381,196.28422 v 5.21549 c 0,2.86863 0.30399,5.33108 0.67687,5.47126 0.37289,0.14019 4.83837,0.20793 9.92151,0.15115 9.13996,-0.10213 9.24102,-0.113 9.24102,-1.01264 0,-0.87688 -0.25332,-0.91423 -7.01672,-1.01729 l -7.01673,-0.10696 v -1.25678 -1.25796 h 5.80775 c 5.54887,0 5.80596,-0.0411 5.80596,-0.91032 0,-0.8693 -0.25709,-0.90916 -5.80596,-0.90916 h -5.80775 v -1.27424 -1.27306 h 7.25925 c 7.09728,0 7.25923,-0.0208 7.25923,-0.91033 v -0.90916 h -10.16222 z"
       style="fill:#f2f2f2;stroke-width:0.593442"
       id="path45" />
    <path
       d="m 921.96343,196.28422 v 5.21549 c 0,2.86863 0.30861,5.33172 0.68593,5.47359 0.37732,0.14185 1.57397,0.21082 2.66045,0.1523 1.65682,-0.0892 2.02235,-0.41492 2.26772,-2.01713 0.27652,-1.80564 0.43707,-1.91021 2.90478,-1.90902 2.11709,6e-4 3.06758,0.32224 5.02953,1.70091 2.72034,1.91163 4.76378,2.52887 7.20677,2.17641 1.49216,-0.21529 1.36587,-0.43427 -1.2325,-2.12642 l -2.89574,-1.88576 2.8161,-0.98939 c 3.90772,-1.37256 3.90293,-3.25496 -0.0127,-4.72719 -2.68705,-1.01027 -3.2462,-1.06379 -11.13047,-1.06379 z m 9.25731,1.81949 c 1.89811,0 4.29313,0.16951 5.32271,0.37669 2.09253,0.42106 2.4892,1.79276 0.71126,2.46126 -0.6388,0.24016 -3.03564,0.43714 -5.32453,0.43714 h -4.16081 v -1.63813 c 0,-1.63451 0.007,-1.63696 3.45137,-1.63696 z"
       style="fill:#f2f2f2;stroke-width:0.593442"
       id="path44" />
    <path
       d="m 893.8965,196.28422 v 4.22145 4.2203 l 3.29028,1.23818 h -0.004 c 2.73562,1.02854 4.00004,1.23705 7.49995,1.23586 5.82835,-0.002 10.11454,-1.05516 11.40377,-2.80074 0.56199,-0.76092 1.02798,-2.89801 1.02798,-4.74928 l 0.01,-3.36577 h -2.90479 -2.90298 v 3.82035 c 0,3.33561 -0.2448,3.91395 -1.9347,4.54931 -2.03925,0.76675 -3.06451,0.84737 -6.41587,0.50923 -3.16751,-0.31961 -4.23139,-1.68618 -4.23139,-5.43872 0,-3.42651 -0.008,-3.44017 -2.41794,-3.44017 z"
       style="fill:#f2f2f2;stroke-width:0.593442"
       id="path43" />
    <path
       d="m 880.27388,196.28422 c -11.55393,0 -11.67363,0.008 -11.36756,0.81848 0.25714,0.68062 1.00386,0.83823 4.42324,0.93126 l 4.11374,0.1116 v 3.95173 c 0,2.17363 0.26326,4.21181 0.58639,4.52838 0.32312,0.31659 1.63104,0.5755 2.90478,0.5755 h 2.31478 v -4.52838 -4.52723 l 4.02326,-0.1116 c 3.31772,-0.0923 4.07901,-0.25586 4.34903,-0.93126 0.32405,-0.81065 0.21157,-0.81848 -11.34766,-0.81848 z"
       style="fill:#f2f2f2;stroke-width:0.593442"
       id="path42" />
    <path
       d="m 842.60218,196.28422 v 5.21549 c 0,2.86863 0.28943,5.32505 0.6443,5.45848 0.35486,0.13341 1.66095,0.24298 2.90299,0.24298 2.21718,0 2.25867,-0.0668 2.25867,-3.68782 v -3.68897 l 3.85313,2.13457 c 6.07669,3.36633 10.60236,5.24222 12.64894,5.24222 1.78747,0 1.88765,-0.28922 1.88765,-5.45848 v -5.45847 h -2.90478 -2.90298 v 3.34252 3.34135 l -6.5335,-3.32856 c -5.44372,-2.77389 -6.97615,-3.33151 -9.19397,-3.34252 z"
       style="fill:#f2f2f2;stroke-width:0.593442"
       id="path41" />
    <path
       d="m 819.37476,196.28422 v 5.45847 5.45848 h 9.74235 9.74234 l -0.30767,-1.00101 c -0.29597,-0.96713 -0.52098,-1.00483 -6.7362,-1.10797 -5.69359,-0.0945 -6.4971,-0.19824 -7.00407,-0.90916 -1.15908,-1.62539 -0.86874,-1.71254 5.69194,-1.71254 6.06497,0 6.29097,-0.0332 6.29097,-0.91032 0,-0.8693 -0.25712,-0.90916 -5.80593,-0.90916 -3.99326,0 -5.81209,-0.1418 -5.82043,-0.45459 -0.008,-0.25017 -0.27629,-0.82392 -0.59725,-1.27423 -0.56779,-0.7966 -0.38354,-0.81848 6.78869,-0.81848 7.21773,0 7.37145,-0.0196 7.37145,-0.91033 v -0.90916 h -9.679 z"
       style="fill:#f2f2f2;stroke-width:0.593442"
       id="path40" />
    <path
       d="m 793.1376,196.28422 c -1.53918,0 -2.798,0.14619 -2.798,0.32436 0,0.17818 2.11132,2.34773 4.69109,4.82137 2.57977,2.47364 4.96077,4.78388 5.29196,5.13411 0.94287,0.99719 4.30257,0.76844 5.91272,-0.40227 0.78572,-0.57126 3.14691,-2.74082 5.24672,-4.82135 2.0998,-2.08054 4.1276,-4.06887 4.50649,-4.4191 0.56538,-0.52263 0.16693,-0.63712 -2.21886,-0.63712 -2.77652,0 -3.05813,0.15093 -6.30185,3.36577 -1.86788,1.85127 -3.57892,3.60843 -3.80246,3.90406 -0.37186,0.4918 -5.77901,-4.34851 -7.14703,-6.39787 -0.44628,-0.66855 -1.23511,-0.87196 -3.38078,-0.87196 z"
       style="fill:#f2f2f2;stroke-width:0.593442"
       id="path39" />
    <path
       d="m 980.39573,196.10285 c -5.06404,0.0265 -9.07451,1.22771 -9.07451,3.05535 0,1.62945 2.5102,2.64119 8.22569,3.31461 6.7088,0.79047 8.31772,1.84974 3.94726,2.59845 -2.23291,0.38253 -3.67184,0.29466 -9.27179,-0.56619 -0.87724,-0.13486 -1.93673,0.0671 -2.67312,0.51039 -1.08843,0.65531 -0.88046,0.81496 1.93652,1.48 2.42593,0.57273 4.33192,0.71382 8.22388,0.60573 6.61912,-0.18383 8.96777,-0.96843 8.96777,-2.99373 0,-1.85012 -1.41534,-2.39672 -8.95147,-3.4553 -3.06078,-0.42992 -5.56003,-0.97449 -5.55076,-1.21027 0.0457,-1.3242 4.1899,-1.91096 8.10085,-1.14751 2.10605,0.41111 3.11525,0.44355 4.11194,0.13254 2.28823,-0.714 1.455,-1.31629 -2.68585,-1.93925 -1.81244,-0.27266 -3.6184,-0.39365 -5.30641,-0.38482 z"
       style="fill:#f2f2f2;stroke-width:0.593442"
       id="path38" />
    <path
       d="m 1012.1293,173.41675 c -0.3444,-0.003 -0.7121,0.007 -1.1274,0.0197 l -3.3881,0.10463 -0.2587,8.84517 -0.2589,8.84634 4.1301,-0.11278 4.13,-0.11161 0.485,-5.45848 0.4832,-5.45847 10.6093,5.5666 c 10.5099,5.51477 10.6407,5.56583 14.0336,5.45848 l 3.4241,-0.10813 v -8.73355 -8.73356 h -4.3545 -4.3562 l -0.4833,5.09457 -0.485,5.09458 -10.1622,-5.19921 c -8.7252,-4.46363 -10.0092,-5.09495 -12.421,-5.11435 z"
       style="fill:#f2f2f2;stroke-width:0.593442"
       id="path35" />
    <path
       d="m 910.45107,173.35978 -5.52361,3.80989 -5.52362,3.80989 -5.29016,-3.53784 c -2.9099,-1.94532 -5.78217,-3.65703 -6.38328,-3.80407 -1.64756,-0.40298 -9.31884,-0.33107 -9.31884,0.0872 0,0.20076 3.70122,2.6846 8.2257,5.5201 l 8.2257,5.15503 v 3.39484 3.39483 h 4.35627 4.35447 v -3.22974 -3.22859 l 8.22749,-5.22828 c 4.52458,-2.87539 8.22571,-5.43458 8.22571,-5.68634 0,-0.30604 -1.58604,-0.45691 -4.78703,-0.45691 z"
       style="fill:#f2f2f2;stroke-width:0.593442"
       id="path34" />
    <path
       d="m 802.16849,172.97967 v 8.91493 8.91493 h 4.35626 4.35447 v -3.09256 -3.09255 l 4.11375,0.014 4.11194,0.014 4.43772,2.98792 4.43591,2.98792 4.99876,0.11044 c 3.06972,0.0676 5.00057,-0.0404 5.00057,-0.27785 0,-0.21278 -2.20006,-1.70648 -4.88836,-3.31928 l -4.88656,-2.93211 4.16082,-1.38816 4.16262,-1.38932 v -2.61588 c 0,-2.54688 -0.0947,-2.65014 -3.53823,-3.83664 -4.61737,-1.59099 -8.84929,-1.99498 -20.89997,-1.99737 z m 8.71073,3.63898 h 7.06559 c 8.11628,0 9.38761,0.30188 9.38761,2.23455 0,0.99508 -0.58053,1.51495 -2.15188,1.92877 -1.39224,0.36665 -4.29332,0.5662 -8.2257,0.5662 h -6.07562 v -2.36475 z"
       style="fill:#f2f2f2;stroke-width:0.593442"
       id="path49" />
    <path
       d="m 794.31943,173.34118 -15.61706,0.1 -15.61707,0.1 0.0399,6.09559 c 0.0214,3.3523 0.0568,7.32322 0.0778,8.82424 l 0.0381,2.72866 h 16.02247 16.02065 l -0.29499,-1.7288 -0.29501,-1.72765 -11.37119,-0.10231 -11.37119,-0.10347 v -1.79392 -1.79508 l 9.43466,-0.10347 9.43648,-0.10464 0.29863,-1.54627 0.2968,-1.54628 h -9.73328 -9.73329 v -1.80787 -1.80786 l 10.88797,-0.1023 10.88796,-0.10348 0.29499,-1.73695 z"
       style="fill:#f2f2f2;stroke-width:0.593442"
       id="path32" />
    <path
       d="m 706.13887,173.32142 v 8.95562 8.95445 l 4.10289,-0.1116 4.1011,-0.11161 -0.24072,-5.79564 c -0.13181,-3.18745 0.0914,-5.67273 0.4959,-5.52242 0.4044,0.1503 3.78472,2.50158 7.51081,5.22479 3.72609,2.72322 7.21018,4.94614 7.74247,4.93995 0.5323,-0.006 4.23346,-2.3695 8.22569,-5.25153 l 7.25925,-5.2399 0.26604,5.93399 0.26605,5.93281 4.08841,-0.11044 4.09023,-0.11161 0.28233,-7.64187 c 0.15562,-4.20287 0.0269,-8.1738 -0.28595,-8.82425 -0.55116,-1.14608 -0.71628,-1.18238 -5.35711,-1.18238 h -4.78882 l -6.83937,5.13295 c -3.76161,2.82325 -7.13994,5.02853 -7.50718,4.90042 -0.36726,-0.1281 -3.49887,-2.39715 -6.95882,-5.04226 l -6.29098,-4.80974 -5.08021,-0.10928 z"
       style="fill:#f2f2f2;stroke-width:0.593442"
       id="path31" />
    <path
       d="m 978.09543,173.22027 c -7.6099,0.01 -12.78322,0.89925 -17.64408,3.03442 -11.69126,5.13542 -4.37681,13.67761 12.80459,14.95239 11.17022,0.82878 23.84085,-1.89221 26.94476,-5.7875 1.4697,-1.84433 1.3622,-4.98783 -0.22801,-6.66178 -3.20745,-3.37634 -11.79922,-5.55068 -21.87726,-5.53753 z m 0.0217,3.45064 c 4.5804,0.045 9.18927,0.8677 11.78385,2.44614 4.12409,2.50893 2.069,6.5841 -4.02874,7.98717 -2.32078,0.53405 -9.29773,0.85618 -12.12767,0.56038 -2.62441,-0.27433 -6.52479,-1.45982 -7.95422,-2.41825 -1.94621,-1.30494 -1.53272,-4.97228 0.7167,-6.35949 2.47873,-1.52862 7.02968,-2.26093 11.61008,-2.21595 z"
       style="fill:#f2f2f2;stroke-width:0.593442"
       id="path30" />
    <path
       d="m 936.4801,173.20864 c -9.36253,0.0112 -15.47771,2.01151 -15.47771,5.06319 0,2.05996 2.80725,3.5742 8.36687,4.51444 11.6352,1.96773 13.39754,2.39068 13.73483,3.28904 0.70535,1.87884 -6.62645,2.43256 -14.12756,1.06728 l -4.24225,-0.77198 -2.81972,1.01612 c -2.20984,0.79602 -2.5806,1.12338 -1.71392,1.51605 2.29398,1.03922 6.68479,1.96802 10.68526,2.25896 8.22195,0.59797 15.52213,-0.25249 19.5263,-2.27408 1.50495,-0.75981 2.02338,-1.54288 1.98539,-2.99837 -0.0651,-2.51516 -2.92956,-3.73323 -11.93766,-5.07831 -10.74545,-1.60448 -12.61349,-2.33454 -9.23378,-3.60526 1.93055,-0.7259 7.79596,-0.7319 11.4635,-0.0128 2.6952,0.52847 2.94731,0.50821 5.56523,-0.43481 1.5081,-0.54324 2.74189,-1.17366 2.74189,-1.40095 0,-0.82985 -8.95519,-2.15518 -14.51667,-2.14851 z"
       style="fill:#f2f2f2;stroke-width:0.593442"
       id="path29" />
    <path
       d="m 862.71668,173.19353 c -3.4879,-0.0486 -6.93953,0.16876 -9.77852,0.68827 -7.82615,1.43213 -12.19173,3.84073 -12.99462,7.16984 -1.2147,5.0367 6.47266,9.2719 18.32095,10.09383 7.54009,0.52306 16.3751,-0.42376 20.91988,-2.24269 l 2.0632,-0.82546 -3.34638,-1.00449 -3.34638,-1.00334 -2.96994,0.82545 c -2.2799,0.63373 -4.25208,0.82384 -8.47726,0.81849 -9.27465,-0.0117 -13.73408,-1.85592 -13.72759,-5.6759 0.007,-3.58341 5.69599,-5.63977 14.70489,-5.3143 3.00814,0.10866 5.50876,0.45287 6.919,0.95102 2.92039,1.03153 3.72952,0.98799 6.33986,-0.33949 2.1422,-1.0894 2.15487,-1.13879 0.4253,-1.85786 -3.32749,-1.38341 -9.23921,-2.20249 -15.05239,-2.28337 z"
       style="fill:#f2f2f2;stroke-width:0.593442"
       id="path28" />
    <path
       d="m 1065.6879,173.12261 c -4.56,-0.0396 -8.2241,0.52828 -11.4926,1.74974 -3.6593,1.36752 -3.7358,1.44998 -3.3264,3.57736 0.4863,2.52784 2.4597,3.54817 8.8194,4.56094 11.728,1.86764 12.2851,2.00848 12.2851,3.10418 0,1.8842 -7.1155,2.4197 -13.925,1.04751 l -3.7354,-0.75337 -2.7836,1.00334 c -1.5308,0.55147 -2.7835,1.13297 -2.7835,1.29283 0,0.5724 7.5048,2.14426 11.6969,2.44962 2.3499,0.17115 4.9262,0.26308 5.7246,0.20463 0.7984,-0.0585 3.0524,-0.20761 5.0078,-0.33135 3.9415,-0.24942 9.0475,-2.11323 10.097,-3.68549 1.0039,-1.50392 -0.3353,-3.47356 -3.1003,-4.55861 -1.4219,-0.55804 -5.4674,-1.46312 -8.9893,-2.01133 -7.4449,-1.15886 -9.7894,-1.81213 -9.7894,-2.72633 0,-1.34754 7.6918,-1.89239 12.7395,-0.90218 2.3911,0.46905 2.7571,0.43495 5.0801,-0.47668 1.377,-0.54042 2.5031,-1.15918 2.5031,-1.37538 0,-0.61524 -4.2865,-1.51893 -9.1506,-1.92877 -1.7378,-0.14642 -3.3576,-0.22749 -4.8774,-0.24066 z"
       style="fill:#f2f2f2;stroke-width:0.593442"
       id="path27" />
    <path
       d="m 999.61621,166.89797 c -76.50412,-0.0906 -78.62105,-0.0743 -78.62105,0.5941 0,0.66712 2.27036,0.689 78.95761,0.74989 75.62763,0.06 78.94303,0.0347 78.62093,-0.5941 -0.3202,-0.62535 -4.0616,-0.66119 -78.95749,-0.74989 z"
       style="fill:#f2f2f2;stroke-width:0.593442"
       id="path26" />
    <path
       d="m 999.61621,166.89797 c 74.89589,0.0887 78.63729,0.12454 78.95749,0.74989 0.3221,0.62876 -2.9933,0.65413 -78.62093,0.5941 -76.68725,-0.0609 -78.95761,-0.0828 -78.95761,-0.74989 0,-0.66839 2.11693,-0.6847 78.62105,-0.5941 z"
       style="fill:#f2f2f2;stroke-width:0.593442"
       id="path25" />
    <path
       d="m 785.42047,166.80961 c -77.66878,0 -78.31335,0.006 -78.31335,0.7278 0,0.72182 0.6448,0.7278 79.84447,0.7278 67.6025,0 79.84627,-0.0778 79.84627,-0.50691 0,-0.27879 -0.68919,-0.60632 -1.53112,-0.72779 -0.84203,-0.12148 -36.77356,-0.2209 -79.84627,-0.2209 z"
       style="fill:#f2f2f2;stroke-width:0.593442"
       id="path24" />
    <path
       d="m 892.88663,163.18109 c 0.0482,0.003 0.74625,0.18838 0.77098,0.18486 0.66746,-0.0951 9.70426,-2.41316 20.08193,-5.15038 l 18.86932,-4.97715 -0.19908,-4.94926 -0.19908,-4.95041 -0.52666,4.87717 -0.52665,4.87716 -19.15892,5.0504 z"
       style="fill:#f2f2f2;stroke-width:0.593442"
       id="path23" />
    <path
       d="m 891.94731,162.95554 0.89045,0.23834 0.0489,-0.0128 c -0.0587,-0.004 -0.84688,-0.21301 -0.93931,-0.22556 z"
       style="fill:#f2f2f2;stroke-width:0.593442"
       id="path22" />
    <path
       d="m 853.67113,143.33875 -0.21175,4.93414 -0.21175,4.93297 19.5987,5.16666 c 9.89323,2.60793 17.22135,4.32786 19.10098,4.58302 l -6.29098,-1.68346 c -3.95043,-1.05723 -10.57143,-2.81327 -14.71396,-3.90174 -4.14261,-1.08847 -9.58911,-2.53092 -12.10236,-3.20648 l -4.56981,-1.22889 -0.30044,-4.79811 z"
       style="fill:#f2f2f2;stroke-width:0.593442"
       id="path21" />
    <path
       d="m 638.96865,144.01989 v 4.20285 4.20286 l -5.42045,-0.10929 -5.42226,-0.10929 -0.14298,-4.00288 -0.14298,-4.00288 -4.65852,0.0907 c -8.82953,0.17162 -8.40666,-0.28782 -8.40666,9.14048 v 8.29642 l -10.88798,0.79057 c -5.98832,0.43495 -16.33294,1.12632 -22.98669,1.53698 -9.42324,0.58161 -12.4717,0.91206 -13.79095,1.49397 -0.93152,0.41087 -1.694,0.96155 -1.694,1.22422 0,0.76689 4.71133,2.65618 7.04931,2.82632 v -9e-4 c 4.21948,0.30707 5.53265,0.24792 5.53265,-0.24996 0,-0.29415 -1.48812,-0.6106 -3.56175,-0.75686 -2.63588,-0.18592 -3.20368,-0.33636 -2.17904,-0.58015 1.66601,-0.39612 117.40577,-0.39083 120.91141,0.006 0.98954,0.11196 1.53628,0.1815 1.56008,0.24532 v 9e-4 l 0.002,9e-4 v 9e-4 9e-4 9.1e-4 h -0.002 v 9e-4 9e-4 9e-4 9e-4 c 0,0 0,9e-4 0,9e-4 0,0 -0.002,9e-4 -0.002,9e-4 0,0 -0.002,9e-4 -0.002,9e-4 -0.0774,0.0773 -0.95071,0.15236 -2.76723,0.29065 -3.34952,0.255 -5.29825,1.28946 -2.41976,1.2847 5.92019,-0.01 11.37301,-1.50378 11.37301,-3.11581 0,-1.49556 -2.82319,-1.88567 -23.22741,-3.21347 -10.91216,-0.71011 -21.14733,-1.43006 -22.74419,-1.59975 l -2.90298,-0.3081 -0.002,-8.33129 v -8.33279 l -3.87124,-0.43831 c -2.12904,-0.24119 -5.06788,-0.45079 -6.53169,-0.46621 z m -30.43056,2.18338 c -2.72235,0 -16.476,3.9936 -21.42842,6.22233 -5.8204,2.61932 -12.0155,7.98245 -12.0155,10.40074 0,0.46403 0.45001,0.8429 1.00084,0.8429 0.55083,0 6.32054,-0.5956 12.82268,-1.32422 6.50213,-0.72862 13.6733,-1.49287 15.93559,-1.69858 l 4.11375,-0.37436 v -7.03498 c 0,-3.86895 -0.19319,-7.03383 -0.42894,-7.03383 z"
       style="fill:#f2f2f2;stroke-width:0.593442"
       id="path14" />
    <path
       d="m 684.4715,171.31111 c -3.67281,0 -6.7923,1.48305 -6.7923,3.23322 -0.004,1.25931 -0.40679,1.41583 -9.43647,3.67852 -5.18786,1.3 -14.84135,3.79708 -21.45196,5.54916 -6.61072,1.75208 -12.64321,3.18672 -13.40546,3.18672 -0.76225,0 -7.79139,-1.67941 -15.61887,-3.73083 -7.82756,-2.05139 -17.52861,-4.54847 -21.55874,-5.54915 -7.01736,-1.74241 -7.34958,-1.8881 -7.83477,-3.44251 -0.9463,-3.0317 -8.22946,-3.95059 -11.64629,-1.46954 -1.37507,0.99848 -1.66443,1.85719 -1.34289,3.9773 0.37688,2.4851 0.65681,2.78839 3.4622,3.73084 1.67904,0.56405 3.69834,1.02542 4.4884,1.02542 0.79004,0 1.49137,0.28571 1.55827,0.63595 0.0669,0.35024 0.3934,3.00624 0.72573,5.90143 l 0.60449,5.26431 22.74419,6.10374 c 12.50903,3.35737 23.39729,6.10543 24.19567,6.10721 0.79848,0.002 11.68666,-2.74203 24.19569,-6.09675 l 22.74237,-6.09907 0.26603,-5.90842 c 0.25585,-5.68328 0.34281,-5.9084 2.25326,-5.9084 1.09231,0 3.25824,-0.47877 4.81416,-1.06379 2.70077,-1.01545 2.82876,-1.20943 2.82876,-4.2854 0,-3.73456 -1.32221,-4.83996 -5.79147,-4.83996 z"
       style="fill:#f2f2f2;stroke-width:0.593442"
       id="path13" />
    <path
       d="m 658.42619,146.2556 c -0.0662,0.002 -0.1013,0.0125 -0.10136,0.0314 -1.9e-4,0.0542 -0.14866,3.04537 -0.3312,6.64783 -0.18245,3.60246 -0.13655,6.75458 0.10316,7.00476 0.23963,0.25016 1.15246,0.46386 2.02703,0.47434 0.87455,0.0105 7.46815,0.73061 14.65421,1.59975 7.18605,0.86915 14.03457,1.59625 15.2189,1.61721 1.90934,0.0338 2.09214,-0.0954 1.60714,-1.14401 -2.65824,-5.74731 -9.16655,-9.99944 -20.44389,-13.35845 -3.69171,-1.09959 -11.7414,-2.90008 -12.73399,-2.87282 z"
       style="fill:#f2f2f2;stroke-width:0.593442"
       id="path12" />
  </g>
</svg>
