<?xml version="1.0" encoding="UTF-8" standalone="no"?>
<!-- Created with Inkscape (http://www.inkscape.org/) -->

<svg
   version="1.1"
   id="svg1"
   width="1799.0001"
   height="518.71289"
   viewBox="0 0 1799.0001 518.71289"
   xmlns="http://www.w3.org/2000/svg"
   xmlns:svg="http://www.w3.org/2000/svg">
  <defs
     id="defs1" />
  <g
     id="g1"
     transform="translate(-24.999939,-400.28711)">
    <path
       style="fill:#000000;stroke:none"
       d="m 262,626.99997 -2,-2 v -1 c 11.18454,-7.05384 25.97058,-6.19226 39,-7.08948 17.93908,-1.23535 36.06961,-2.94867 54,-4.74152 7.12033,-0.71197 15.17749,-0.15234 22,-2.169 2.99823,16.15027 0.005,32.73822 0,49 -0.002,4.66308 1.92199,14.04638 -1.55326,17.67053 -4.18637,4.36566 -13.04199,5.2334 -18.44674,7.83948 -20.83576,10.04651 -43.54917,16.11041 -66,21.19909 -12.85666,2.91407 -26.75302,0.69953 -33,15.2909 5.92434,1.36139 11.08099,-0.6969 17,-0.96064 24.9877,-1.11346 48.86215,-9.81378 72,-19.03936 9.59189,-3.82453 20.6383,-10.46826 31,-11 0.003,30.35119 4.95187,66.59399 23.71063,91.69598 20.16516,26.98395 53.44971,-3.28516 60.28937,-25.69598 -2.96335,-4.3526 1.13043,-7.64844 2.5054,-12 2.95023,-9.33686 6.46622,-19.10327 6.4946,-29 11.57617,11.40588 7.25738,31.68365 17.6134,42.60571 5.68134,5.99188 14.08515,4.10107 18.99695,-1.65894 8.34125,-9.78167 15.33929,-25.08844 16.38965,-37.94677 7.64074,3.99682 7.22412,15.02722 16.00384,18.51233 8.01667,3.18225 13.33441,-4.69251 17.24689,-10.51233 5.06085,-7.52808 9.59656,-17.27124 12.11884,-26 2.19311,-7.58966 1.9461,-15.71778 8.63043,-21 l 0.0286,9.48224 13.63117,12.80328 13.34027,22.71448 c 1.32568,-10.72376 -0.20001,-22.87183 -6.80329,-31.83026 -3.97674,-5.39515 -11.35687,-8.71766 -13.71368,-15.18439 -3.84387,-10.54706 5.68213,-26.92816 -10.48303,-26.98535 -0.33521,6.46106 -3.89759,11.7857 -5.40204,18 -3.43805,14.20141 -6.18359,25.9317 -12.58258,39 -1.49011,3.04321 -8.24268,17.95868 -12.60413,15.16821 -3.2984,-2.11029 -3.9339,-8.7619 -5.21759,-12.16821 -4.8883,-12.97083 -3.56604,-21.90998 -5.35644,-34.98072 -0.52899,-3.86193 -4.05884,-5.8269 -7.74311,-4.41125 -7.34027,2.82043 -4.44555,14.36371 -5.84027,20.39197 -4.85418,20.98065 -11.36248,38.43365 -20.25384,58 h -2 c -4.46222,-19.46387 -11.25311,-35.22663 -20.03473,-52.91053 -2.32504,-4.68206 -5.88287,-16.72979 -13.01157,-15.64196 -7.65887,1.16876 -3.47955,11.00702 -2.96835,15.55249 1.67041,14.85327 0.3858,27.42486 -2.64969,42 -1.35815,6.52124 -6.46847,13.45031 -5.33566,20 -13.20957,2.81628 -15.18106,27.51397 -33.61112,23.11108 -6.90027,-1.64844 -12.42321,-12.9444 -15,-18.72217 -7.8703,-17.64703 -9.81961,-34.54614 -12.61111,-53.38891 -0.97537,-6.5838 -4.65479,-17.91193 -0.44446,-24 4.2677,-6.17102 16.14063,-8.61072 22.66669,-11.88886 10.69723,-5.37335 20.66705,-13.95099 30,-21.36114 11.44385,-9.08618 21.47949,-18.59589 29.66665,-30.75 3.79047,-5.62708 6.87848,-17.72937 12.36112,-21.36109 7.42218,-4.9165 22.33887,-3.60895 30.97223,-5.02783 21.86389,-3.59338 44.83783,-4.4884 67,-6.6944 9.88769,-0.98419 21.15466,-5.65411 31,-3.91668 l 2,68 5,15 v 1 c -3.05078,4.37939 -0.71808,11.88769 -0.15894,17 1.38562,12.66876 3.03253,26.39489 3.15894,39 0.0495,4.93316 3.04931,13.68945 -1.31787,17.39734 -9.93817,8.43786 -30.33026,0.90264 -41.68213,2.18292 -4.57978,0.51654 -28.13642,2.25812 -23.86341,11.08026 4.16449,8.59802 19.64112,2.20148 26.03315,0.99536 13.10272,-2.47235 31.96466,8.31818 35.83026,21.34412 4.8938,2.51355 12.82342,16.94806 19.25769,10.3966 4.63592,-4.72033 0.58685,-22.28766 -0.15119,-28.3966 -0.36169,-2.99378 -2.30328,-7.36408 0.3819,-9.77161 4.24164,-3.80304 12.30963,-2.63574 17.5116,-3.82251 16.55865,-3.77765 33.61249,-5.04523 50.28552,-7.90277 28.13861,-4.82257 55.73889,-12.58246 83.71448,-17.98456 3.39447,-0.65546 6.67712,0.62225 10,0.0787 6.78528,-1.10999 14.36511,-5.73798 21,-8.01697 12.58539,-4.32294 25.73669,-6.14441 38,-11.58026 2.19714,3.91613 6.14447,6.40332 10.7716,4.25769 4.18708,-1.94159 3.91547,-8.13428 8.27234,-10.70063 10.68347,-6.29284 24.84259,-7.58605 33.95606,-16.55706 2.51365,10.58252 7.63085,27.3175 20.00005,29.72528 15.5139,3.01996 45.3593,-26.0138 42,-41.72528 l 3,-4 h 1 l -1,3 c 6.00218,0.16363 10.28508,4.63159 15.99998,6.27008 15.81443,4.53418 53.22893,2.40197 48.00003,-22.27008 10.4138,-2.26545 25.2836,6.24353 33.7368,-1.53321 3.8572,-3.54852 5.3971,-9.00604 7.9075,-13.45214 2.0232,-3.58326 4.6953,-5.84375 5.3557,-10.01465 h 1 l 2,1 c 0.8913,12.83917 0.035,25.12292 0.04,38 0,3.74237 0.1,10.25854 4.1875,11.95215 8.2313,3.41033 9.8472,-9.55622 10.3581,-14.95215 0.9842,-10.39728 -3.4557,-20.87799 -4.098,-31.03937 -0.5975,-9.4516 3.6119,-23.15424 -0.4877,-31.96063 l 3,1 1,-5 c 5.0874,1.28479 9.8445,-0.73291 15,-0.96064 11.3428,-0.50103 23.3125,0.55292 34,-4.03936 l 3,9 v 1 c -7.8661,6.3761 -0.4257,24.58868 2.5409,32 3.2413,8.09765 6.4929,16.60345 13.6296,22.07562 16.5029,12.65381 51.6415,12.61072 60.8295,-9.07562 -13.8604,3.73224 -27.194,11.15319 -42,7.07177 -26.0943,-7.19317 -30.1487,-48.24511 -23.9591,-70.07177 2.2494,-7.93195 7.4967,-15.82758 12.9182,-21.95679 3.3931,-3.836 7.5997,-4.51056 8.0409,-10.04321 l -6,2 c -0.1428,-9.25696 6.291,-20.17536 8.845,-29.16974 5.6551,-19.91614 7.9779,-44.53736 3.0238,-64.83026 -2.9517,-12.0907 -5.7763,-27.86347 -20.8688,-28 0,4.48553 -0.9468,9.15374 3,12 -8.4762,6.06213 -4.811,21.54382 -5.8341,31 -1.7439,16.11737 -8.7704,31.17199 -11.7763,46.99615 -1.4873,7.83002 0.506,16.19922 -4.3896,23.00385 5.4968,9.88403 0.5204,17.63574 -10,17 l 2,-7 -4,-3 7,2 -2,-5 -9,1 c -1.3014,8.03711 -22.546,15.96435 -17.8782,24.69677 3.9063,7.3078 19.5805,-1.83618 24.8782,-3.26239 4.6598,-1.25445 9.5362,-0.36962 8.8325,5.55017 -0.7757,6.5257 -9.8251,6.5387 -14.8325,7.40125 -14.2971,2.46277 -33.5999,-1.12122 -46.9406,5.13196 -4.703,2.20447 -4.2943,20.54162 -6.4467,26.48224 -3.0365,8.38049 -10.4491,26.16156 -19.6374,29.1134 -6.7029,2.15338 -16.8614,-2.1087 -23.9753,-2.1134 1.6113,-14.78803 -7.8766,-37.64411 -22.0039,-43.63501 -7.1893,-3.04877 -30.13563,-6.08075 -31.99613,4.63501 -15.63668,2.37506 -22.63218,24.44537 -20.69988,38 0.8117,5.69354 4.4175,12.22827 3.5718,17.99615 -0.6795,4.63513 -5.6017,11.74768 -8.8719,15.00385 l 2,4 -3,3 c -9.5825,1.16839 -18.9264,25.71887 -28.9059,18.57794 -10.673,-7.63721 -13.0353,-31.54273 -13.0933,-43.57794 -0.1715,-35.56275 0.5142,-71.50183 -1.0402,-107 -0.5623,-12.84009 1.1611,-25.24372 0.9993,-38.03858 -0.054,-4.25915 -2.367,-9.49286 -7.54253,-6.51233 -5.83124,3.35816 -8.0083,15.68415 -10.17438,21.55091 -5.17194,14.00811 -9.77997,30.23315 -12.11493,45 -1.36462,8.63037 -1.98932,24.03943 -7.12811,31 l 2,2 v 1 l -2.88349,9 -4.11651,28 3,-1 -1,3 c -4.96747,1.00293 -4.03125,6.72638 -4.56555,10.99615 -1.39356,11.13678 -7.7005,18.78754 -7.43445,30.00385 -7.43921,-10.30255 -6.90662,-29.57422 -8.16901,-42 -2.30224,-22.66156 -9.64343,-44.7276 -12.07171,-67.57563 -1.01215,-9.52331 -8.36158,-21.98962 -5.75928,-31.42437 l -3,-1 c 4.75335,-19.88202 -16.21497,-9.02063 -26,-8.17438 -5.27063,0.45581 -12.80084,-4.44672 -15,2.17438 l -5,-5 c -4.63715,0.74212 -7.58905,4.08563 -12.01465,5.09875 -3.13068,0.71668 -7.71368,-0.99554 -10.38117,1.08411 -5.50726,4.2937 3.17103,7.63995 6.39582,7.81714 v 1 l -82,14.61419 -71,12.38581 c -2.02905,-25.70777 -2.53259,-52.23951 -1.20911,-78 0.63672,-12.39295 -1.16583,-24.17993 4.20911,-36 6.82202,1.06781 13.28937,-1.38526 20,1.56402 9.45752,4.15656 19.48413,16.35742 30,15.43598 v 3 l -3,-1 3,9 1,4 h 3 c 0.76806,8.41436 3.90893,19.28271 0,27 16.81329,-2.76624 10.32129,-22.33167 5.47607,-32.1659 -2.01257,-4.0849 -3.65045,-9.88855 -8.47607,-10.8341 -7.79163,-19.00122 -46.22357,-37.51575 -62.30097,-17.67438 -5.94751,7.3399 -4.45239,22.76495 -4.2044,31.67438 0.56408,20.26452 0.61682,40.67889 0.7785,60.88427 0.052,6.49726 2.69501,15.2735 0.56018,21.55787 -2.48846,7.3255 -21.83655,5.3222 -27.83331,6.82714 -21.07733,5.28962 -43.51453,4.82129 -65,6.90046 -10.69696,1.03515 -21.27777,4.36871 -32,4.83026 1.47162,-5.56006 7.94201,-19.65906 3,-24 v -1 c 3.03747,-4.44611 1.94324,-10.73865 2.52545,-15.96064 2.0238,-18.15142 -2.0694,-37.34747 -5.61652,-55.03936 -1.22601,-6.11505 -4.5794,-18.94959 -10.90893,-21 l 2,-3 -6,-7 c 0.6336,-2.57886 0.81875,-3.99994 -2,-4 -1.07514,-7.09461 -9.04032,-19.03528 -17,-18 l 1,-4 c -8.36218,-3.25727 -15.22357,-9.62622 -23.04013,-13.82563 -9.20819,-4.94708 -19.81769,-7.08648 -28.95987,-11.63348 -5.60593,-2.78821 -19.47693,-10.25903 -25.89121,-7.74457 -4.78778,1.87689 -2.33743,8.51349 -1.90201,12.20368 1.31919,11.18005 2.32322,22.66742 2.75464,34 1.41632,37.20263 2.09827,73.79791 2.03858,111 -0.016,9.96606 -1.26532,20.1535 -2.67594,30 -0.46441,3.24176 0.74698,7.87109 -1.87732,10.3966 -2.89849,2.78943 -8.80114,1.44184 -12.44674,1.69287 -9.42032,0.64869 -18.71063,2.67627 -28.16977,3.07953 -31.12799,1.32703 -64.07147,3.34558 -93.83023,13.19055 -5.62686,1.86152 -24.97115,2.67621 -26.20757,9.80945 -1.01506,5.85614 7.84392,4.8595 11.20757,4.70056 12.49585,-0.59045 24.62295,-2.67889 37,-3.86956 m 162,-201 v 1 l -2,2 c 30.28747,4.18206 53.42645,42.35235 57.7037,70 1.85111,11.96533 -0.90439,29.42566 4.2963,40 v 1 c -4.3458,13.15155 2.32837,33.20147 -6.48303,45.69677 -3.59632,5.09992 -19.61203,6.068 -25.51697,6.29242 -20.78958,0.7901 -42.48288,2.14515 -63,6.01081 0.38019,-45.93256 5.45517,-92.12323 0.18365,-138 -1.73611,-15.10907 2.58722,-30.49121 -4.18365,-45 l 39,11 m 758.00006,20 c 4.7562,5.4848 5.2651,15.05145 6.0347,22.08947 2.2207,20.30872 -0.8572,39.63178 -7.2253,58.91053 -2.8336,8.57861 -3.4774,20.66705 -12.8094,24 l -1,-1 12.79,-77 2.21,-27 m -4,2 1,6 -5,2 2,-8 h 2 m -528.00006,7 -1,1 1,-1 m 523.00006,0 -1,1 1,-1 m -557.00006,4 -1,1 1,-1 m 576.00006,2 -1,1 1,-1 m -575.00006,3 -3,2 3,-2 m -592.000001,12 1,7 h 4 l -5,-7 m 458.000001,8 -1,1 1,-1 m 956.00006,18 v 6 l -2,-3 -11,14 1,7 h 1 l 2,-5 2,2 14,-16 -4.9584,31.76465 -4.0416,11.23535 c -7.4352,-3.90137 -5.9266,-12.97516 -5,-20 h -6 c -1.6426,4.54907 -6.7731,12.38836 -2,16 l 3.1111,17 -3.1111,15 c 4.7974,-2.71375 5.2119,-5.85047 4,-11 6.4101,5.8518 8.2223,14.61712 12.243,22 7.8821,14.47308 18.1256,35.11328 18.5525,52 0.3321,13.13501 -3.3399,25.6054 -7.0108,38 -2.6622,8.98822 -5.9731,20.22888 -11.6597,27.89044 -5.0034,6.74103 -14.5591,1.42602 -20.125,7.10956 h -1 c -6.0845,-3.51795 -28.0481,0.35418 -34.9552,2.51696 -3.0054,0.94104 -3.9052,2.62244 -4.0448,5.48304 -5.7976,-2.73102 -8.3914,-4.2262 -15,-3 v 1 l 3,3 h -5 v -4 h -5 l 2,3 -13,-2 v 4 l -3,-3 c -4.0834,0.0139 -8.6781,-0.5196 -10,4 h -1 l -4,-2 v 1 l 3,1 -2,5 h -1 l -5,-5 v 5 l -7,-1 3,-2 h 1 c -2.1943,-6.61219 -8.017,-2.86792 -12,0 v -2 l -4,2 c -2.6814,-2.34192 -8.5546,-1.02826 -12,-0.57563 -9.3506,1.22834 -18.6381,1.98584 -28,3.3133 -4.3461,0.61627 -8.405,-0.54297 -10,4.26233 l -5,-3 1,6 c -3.7136,-1.24829 -11.7168,-6.98908 -13,-1 -5.8308,-3.91394 -8.6572,-1.59754 -9,5 l -3,-1 2,-4 -5,-1 v 4 h -1 c -2.6869,-4.38013 -6.3432,-4.37311 -11,-3 v 1 l 4,1 v 1 l -4,3 1,-3 -3,-3 -10,5 -2,-3 2,6 -4,-2 1,-3 -3,3 h -1 v -3 l -3,2 -13,-1 1,3 c -5.785,-0.68683 -20.9517,-3.24164 -23,4 l -10,-3 v 2 l -23.8843,2.87964 -7.1157,2.12036 -6,-1 2,2 v 4 c -8.6519,-8.01483 -19.3179,-1.86097 -30,-3 l -5,5 c -3.018,-4.18378 -7.6182,-3.31946 -10,1 -5.1755,-3.9159 -8.6954,-1.61914 -14.4245,-0.88428 -11.5147,1.47699 -22.9211,3.88879 -34.5755,4.17053 -4.413,0.10669 -12.3027,1.09271 -15.00003,4.71375 -10.4428,-3.07483 -25.32248,1.3031 -35.99998,2.74072 -4.2718,0.57513 -9.5504,-0.69641 -11,4.25928 l -19,0.0494 -48.00005,5.54474 -18,4.40589 h -1 c -4.00562,-3.88233 -21.29077,2.23401 -27,2.8302 -21.15656,2.20929 -41.90668,5.65722 -63,8.28167 -9.00067,1.11988 -21.63751,-0.0325 -29,5.88813 -5.78913,-3.7591 -28.39936,0.0569 -34,4 -5.27527,-3.97596 -12.9502,0.41797 -19,0.91436 -15.23993,1.25049 -30.76544,3.4505 -46,5.65741 -5.46076,0.79108 -13.57489,0.0757 -18,3.42823 h -1 c -4.51312,-2.47724 -10.21778,0.9563 -15,1.74072 -9.65503,1.58368 -19.21277,1.62653 -29,3.39429 -30.40106,5.49096 -64.17023,9.82653 -95,10.82177 -13.65653,0.44086 -29.74402,-3.77288 -43,-6.56866 -14.99829,-3.16327 -31.71948,-3.78009 -47.00385,-5.15662 -80.27615,-7.22973 -161.19986,-13.53735 -241.92131,-12.14044 -33.52798,0.5802 -68.667923,3.13416 -101.074841,11.6651 -14.73366,3.87854 -34.87784,10.45856 -21,27.24384 l 14,6 2,-2 h 1 c 6.21466,5.42981 16.67479,5.30804 24.42438,7.21069 25.413581,6.23938 53.572321,4.13196 79.575621,5.07324 73.59332,2.66419 145.83624,-1.82849 219,-9.60028 30.33578,-3.22235 62.02923,-3.75476 92,-9.30865 25.10168,-4.65161 48.33441,1.61291 73.00079,4.91357 7.30988,0.97815 22.8039,8.00311 28.99921,3.71143 8.25928,7.18487 27.073,8.25091 37.57562,10.09338 4.15765,0.72937 10.12567,4.60425 13.42438,0.90662 h 1 l 3,4 47,9 -1,-5 -3,1 -7,-4 v 2 l -12,-5 -10,1 c -4.29212,-6.83277 -17.26966,-8.59107 -24,-5 l 1,-3 -11,-1 -1,-3 -5,2 v -4 l -11,-1 v 2 c -3.2074,-1.09619 -7.99152,-6.698 -9,-2 -12.32654,-9.15528 -36.05817,-10.52161 -51,-12 6.1333,-5.74695 21.76135,-4.29651 30,-5.28553 25.85388,-3.10357 51.27044,-6.73614 77,-9.94751 98.18841,-12.25506 197.71924,-24.39758 295.00005,-41.51159 23.778,-4.18311 48.09798,-4.97553 71.83021,-9.24072 7.7877,-1.39966 20.2571,-0.46888 26.1698,-6.01465 h 1 c 6.9796,5.07867 25.3129,-1.5271 33,-3.50537 23.1171,-5.94904 48.7297,-5.24946 72,-9.45533 7.797,-1.40924 25.5328,1.03949 30,-6.0393 h 1 c 0.9388,4.38202 5.4067,2.37414 9,1.91668 7.1858,-0.91485 22.5046,-1.05194 27,-6.91668 h 1 c 5.2683,3.99121 11.286,1.64123 16,-2 l -1,3 45,-5 v -4 h 1 v 3 l 36,-2 30,-4.21991 62,-8.78009 v -6 h 1 l 1,6 39,-4 v 1 c -3.3064,2.09509 -4.4514,4.09985 -4,8 l -4,1 -9.6004,12.08569 -31.3996,35.91431 -2,-1 -24,22 -21,9 -10,8 c -5.3136,4.54882 -12.1914,6.98944 -17.9422,10.95446 -2.5778,1.77741 -4.2875,5.26319 -7.1118,6.48768 -11.07,4.7998 -29.7205,4.84387 -35.946,17.55786 l 5,3 h 1 l 19,-9 -2,-4 5,2 8,-6 c 14.3452,0.64917 24.9582,-16.55396 39,-18 l 10,-10 8,-6 c 7.5044,0.17535 22.8226,-13.23774 28.5755,-18.25153 13.2201,-11.52161 26.2214,-23.81842 36.9861,-37.76312 5.8612,-7.59265 12.5551,-21.04682 20.4816,-26.24304 6.1771,-4.04938 22.7484,-5.02094 29.9568,-3.74231 l 19,-3.03553 35,-4.96447 -1,-4 2,4 c 4.2634,-0.13593 9.6543,-0.39508 11,-5 11.3469,7.76989 33.5588,1.10711 46,-1.5448 8.874,-1.89154 18.7358,-0.82917 27.7145,-2.07947 19.3636,-2.69647 38.7114,-4.245 58.2855,-5.37573 v -4 h 2 v 4 c 6.1896,-1.04389 18.0301,-0.12012 14,-9 l 4,7 h 7 l 3,-4 v 4 c 7.6918,-2.45014 16.1276,-2.87421 24,-1 v -4 c 9.9032,3.59411 24.2445,1.43768 34.7145,0.8966 16.5488,-0.85528 32.745,-0.8966 49.2855,-0.8966 l -6,-8 1,5 c -3.315,-2.76239 -6.4263,-2.86853 -7,0 l -8,-6 1,6 -5,-1 2,-3 -14,2 2,-3 -7,2 2,3 -13,-4 -1,6 -4,-6 h -5 l 1,6 -4,-1 2,-3 -6,-2 1,4 -4,-4 h -1 l -2,5 -10,-4 2,2 -2,3 h -1 c -1.6923,-5.10303 -9.9769,-6.64521 -13,-2 -6.7852,-4.16516 -8.6342,-0.23529 -15,2 l 1,4 -2,-5 -3,1 v -1 l 7,-1 v -2 h -16 l -1,1 3,5 -12,-5 v 3 h -1 l -7,-2 v 2 h 4 v 2 h -4 l 1,3 -2,-4 -3,1 -3,-2 -1,5 h -1 v -3 l -8,-2 -4,4 1,-2 h -19 v 6 h -2 l -2,-6 h -1 l -27,4 1,6 h -1 l -4,-6 v 6 l -7,-1 2,-1 v -1 l -7,-1 -2,3 h -1 l -8,-1 1,5 -2,-5 h -15 l 3,6 c -2.8999,-2.24042 -11.1889,-7.45386 -12,-1 -6.3081,-1.99964 -10.6493,-2.71064 -15,3 h -1 c -6.5774,-6.71637 -12.9916,-0.45246 -20.0393,-0.12885 -2.5531,0.11725 -5.3904,-1.5069 -7.9607,-1.87115 l -1,4 c -3.2869,-2.29016 -6.57,-2.43976 -9,1 l -5,-2 1,3 -3,-3 h -1 l -1,3 h -26 c -0.1141,-5.70734 3.4369,-9.70368 5.0764,-15 3.8772,-12.52533 8.6967,-24.69605 9.6736,-37.91053 1.9451,-26.30957 -6.8919,-46.51709 -18.2709,-69.12878 -5.1094,-10.15308 -7.4728,-22.61682 -12.4791,-32.96069 l 4,1 -2,-11 c 8.805,-1.55365 12.739,-25.99042 13.706,-34 0.4312,-3.57117 -0.101,-8.17841 -3.8149,-9.91358 -3.449,-1.61139 -7.5931,2.0268 -10.8911,2.91358 m 7.6666,-0.33332 -0.3332,0.66663 0.3332,-0.66663 m 2.3334,0.33332 -1,1 1,-1 m 1.6666,0.66668 -0.3332,0.66663 0.3332,-0.66663 m -911.66666,16.33332 3,-1 -4,4 v 1 c 12.62298,6.07324 19.63226,-4.54163 16,-16 -8.06903,0.38922 -17.20856,1.68158 -15,12 m 912.00006,-8 -2,2 v -2 h 2 m -4,8 -2,2 2,-2 m -543.00006,1.33331 c 0.77325,0 0.16015,0.49792 -0.33332,0.33337 l 0.33332,-0.33337 m -360,7.66669 v 1 c 5.72552,-0.12195 11.19446,-0.91516 13,-7 l -13,6 m 902.00006,-6 -1,1 1,-1 m -82,14 4,8 h 1 l 4,-2 c -1.6524,7.8078 -5.8627,26.36273 1,30 l -1,-6 c 11.8529,12.98663 29.4752,45.24646 49.5355,21.9599 2.609,-3.02869 4.5469,-6.08954 5.4645,-9.9599 h -6 l -12,10 c -24.3934,-5.73297 -26.1984,-34.72766 -29,-54 l 3,2 c -2.3641,-18.5918 -10.9622,-4.94049 -20,0 m -452.00006,-9 -3,19 -2,-1 -2,4 v 1 l 3,2 v 1 c -5.51001,8.38293 -2.63886,25.9765 -2.45447,36 0.51032,27.73736 2.06158,55.26928 3.45447,83 -7.44202,0.21106 -19.78772,1.5249 -25,7 l -5,-1 c 0,-33.45716 11.99664,-65.20649 16.86963,-98 1.49102,-10.03406 3.72607,-31.96277 12.13037,-38 v -1 c -3.69995,-3.28412 -0.29871,-9.93854 1,-14 h 3 m 534.00006,1 -1,1 1,-1 m -264,3.33331 c 0.7733,0 0.1603,0.49792 -0.3334,0.33337 L 1182,531.33333 m 262,0.66669 v 2 h -2 l 2,-2 m -643.00006,4 c -1.99317,2.53503 -4.05304,2.58215 -6,0 h 6 m 106,0 1,1 -1,-1 m 242.66666,5.33331 0.6668,0.33337 -0.6668,-0.33337 M 1424,541.00002 l -1,1 1,-1 m -200,28 9.0548,11.70984 27.9452,18.29016 -15,1.89123 -15,-3.89123 c -1.2791,8.87951 9.3212,13.88891 17,12.67437 7.3212,-1.15795 15.7718,-7.31842 23,-6.73608 7.4164,0.59753 15.6254,4.91425 23,6.60956 16.5505,3.80462 33.119,2.95837 49,-2.86731 7.7527,-2.84393 19.6182,-9.26508 22,-17.68054 h -1 l -1,2 1,-4 c -4.6697,-0.59381 -7.7241,0.9989 -7,6 l -3,-3 h -1 l -7,12 1,-6 -11,7 c -14.4884,0.55322 -41.5512,4.66876 -52,-8 5.7104,-2.70142 27.5122,-16.28394 17,-23 l 3,3 v 1 l -5,2 1,3 -3,-2 -5,3 c -15.4298,15.47314 -31.4232,7.66955 -46,-4.32874 -4.5247,-3.72436 -12.218,-9.03119 -12.5239,-15.49689 -0.1921,-4.05999 6.285,-7.44085 9.6134,-8.62957 9.7439,-3.48011 24.5636,-2.61499 33.9105,1.4552 l -3,-5 23,16 v -6 h 1 l 3,3 -3,-3 c -1.7437,-11.60999 -16.6448,-14.38385 -26,-11 -0.6653,-5.31653 -16.286,-4.86579 -21,-4.61109 -7.9214,0.42798 -22.1417,4.0036 -25.9352,11.61109 -1.887,3.78424 -0.6647,8.87268 -1.0648,13 m -405.00006,-24 c -5.29431,22.2315 -12.51538,45.14343 -14.92127,68 -0.69409,6.59393 0.0462,23.8551 -5.07873,28 1.1369,-19.17792 2.17779,-40.91565 0.64123,-60 -0.56225,-6.98316 -4.40704,-23.75708 -0.46222,-29.68213 2.55176,-3.8327 15.33014,-5.55451 19.82099,-6.31787 m 372.00006,3 v 1 l 5,-2 -5,1 m -361.00006,1 3,18 c 6.34961,5.34198 3.37829,22.31982 4.10418,30 2.31043,24.44458 11.97614,48.53125 13.94599,73 0.40698,5.05529 5.388,18.02203 2.79321,22.41125 -1.77911,3.00946 -9.7348,3.16657 -12.84338,3.96686 -11.96961,3.08166 -24.20423,6.85004 -36,10.62189 -3.53302,-10.45728 0.64313,-27.83844 2.13196,-39.01465 3.73126,-28.00977 5.62799,-56.46918 12.34259,-83.98535 2.63159,-10.78418 2.84344,-26.45508 10.52545,-35 m 442.00006,0 -1,1 1,-1 m -30,1.33331 c 0.7733,0 0.1603,0.49792 -0.3334,0.33337 L 1242,550.33333 m 196,-0.33331 -1,1 1,-1 m -603.00006,1 -1,1 1,-1 M 1237,551.33333 l 0.3334,0.33337 c -0.4934,0.16449 -1.107,-0.33337 -0.3334,-0.33337 M 636,738.99997 c -4.00977,-10.86701 -1.94104,-23.6427 -3.28552,-35 -3.36707,-28.44196 -7.98926,-57.37329 -8.69983,-86 -0.21399,-8.62238 1.12658,-17.9043 -0.16126,-26.42438 -0.45404,-3.00391 -2.16241,-8.23358 0.75,-10.54785 5.06531,-4.02503 18.14777,-2.78101 24.39661,-3.67822 22.12384,-3.17652 43.8753,-8.5976 66,-11.50849 17.419,-2.29175 34.58362,-6.5982 52,-9.07641 4.435,-0.63105 14.43042,-4.98322 18.36108,-1.73609 1.94959,1.6106 1.388,5.71686 1.50855,7.97144 0.43701,8.17315 1.14782,16.90142 0.42975,25 -2.5149,28.36242 -1.36097,59.51971 0.84564,88 0.65106,8.40313 1.77575,16.55749 1.85882,25 0.0322,3.27508 1.13129,7.66217 -2.19134,9.68213 -4.10895,2.49798 -11.49188,2.38519 -16.23688,3.46136 -11.17303,2.53412 -22.20294,5.37024 -33.57562,7.13116 -14.70716,2.27723 -29.30145,6.45319 -44,8.37659 -19.11011,2.50061 -39.41883,4.1272 -58,9.34876 m 593,-184 -1,1 1,-1 m 3,0 -1,1 1,-1 m -91,2 -1,1 1,-1 m -226.00001,2 1,5 h -1 v -5 m 221.00001,0 -1,1 1,-1 m 35,3 -1,4 h -1 v -4 h 2 m 131,2 2,2 v -2 h -2 m -178,2 -1,1 1,-1 m 44,0 -1,1 1,-1 m 130,1 1,1 -1,-1 m 3.3334,0.66668 0.3332,0.66663 -0.3332,-0.66663 m 4.6666,0.33332 v 5 h 1 l -1,-5 m 60,4 v 2 h 2 v -2 h -2 m 6,1 -1,4 1,-4 m -76,5 3,-2 -3,2 m 69.3334,-1.33332 0.3332,0.66663 -0.3332,-0.66663 m 3.6666,1.33332 -6,6 v 1 l 4,1 2,-8 m 50,5 v 3 h -1 l -1,-3 h 2 m -311,1 -1,1 1,-1 m 179,5 -1,1 1,-1 m 73,0 -2,4 2,-4 m -370.00003,8 -1,1 1,-1 m 39.00003,25 3,1 v 1 c -4.1696,-0.34101 -10.9826,-3.93433 -14.7863,-1.92902 -8.8487,4.6651 0.1076,12.33917 -2.3889,17.49536 -2.4844,5.13117 -21.35863,2.75385 -25.82483,1.43366 2.6151,-5.76734 17.35633,-27.6355 7.9514,-31.50769 -3.6636,-1.50837 -7.2643,1.61633 -10.9514,1.50769 l -5,4 c 4.9736,-9.01654 21.06193,-20.59424 31.99933,-16.14197 5.088,2.07117 7.0566,6.94458 10.0539,11.1026 3.0631,4.24939 6.3915,6.44366 5.9468,12.03937 m -559,-21 c -9.50299,33.30206 -52.96271,59.617 -83,72 l 1.93133,-46.98535 0.0964,-16.27314 19.97223,-4.02704 28,-0.88806 33,-3.82641 m 520.00001,0 -1,1 1,-1 m 353.00003,1 -2,2 v -2 h 2 m -357.33333,18.66668 -0.3334,0.66663 0.3334,-0.66663 M 1037,619.99997 l -1,1 1,-1 m 46,0 3,1 -2,2 1,3 -2,-6 m -823.00004,3 -8,3 1,-3 h 7 m 735.00001,0 -1,1 1,-1 m 22.00003,2 -1,1 1,-1 m 64,0 c 1.5239,2.41406 1.2507,3.29467 -1,5 l 1,-5 m -2.3334,7.66668 -0.3332,0.66663 0.3332,-0.66663 m 154.3334,8.33332 3,-2 -3,2 m -250.00003,11 1,-1 c 11.7992,2.19055 24.39333,0.10461 36.00003,-2.49927 3.7892,-0.8501 11.0273,-3.40827 14.2182,0.10266 3.8139,4.19647 -1.5834,12.79553 -5.5971,14.86188 -13.3008,6.84765 -41.24733,5.46716 -45.62113,-11.46527 m -183.00001,-1 -1,1 1,-1 m 413.00004,0 1,2 -1,-2 m 602,33 h -3 v 1 l 11,2 h 1 l -2,-8 h -3 l -2,3 1,-4 c -3.5653,1.13659 -4.2045,2.49817 -3,6 m -14,-5 -1,2 1,-2 m 15,2 2,5 h -1 l -2,-1 1,-4 m -857.00001,1 -1,1 1,-1 m 807.00001,0 1,2 h -2 l 1,-2 m 54,0 -1,1 1,-1 m -953.00004,1 -1,1 1,-1 M 1779,683.33328 c 0.7735,0 0.1601,0.49786 -0.3334,0.33337 L 1779,683.33328 m 5,-0.33331 -1,1 1,-1 m -44,1 -1,1 1,-1 m -35,1 v 3 l -2,-3 h 2 m 7,0 -1,1 1,-1 m 56,0.33331 c 0.7735,0 0.1601,0.49786 -0.3334,0.33337 L 1768,685.33328 m -45,0.66669 -1,1 1,-1 m -46,1 -1,1 1,-1 m 3,1 -1,1 1,-1 m 4,0 -1,1 1,-1 m -1322.00004,2 v 1 h -4 l 4,-1 m 1278.00004,1 -1,1 1,-1 m 3,0.33331 c 0.7735,0 0.1601,0.49786 -0.3334,0.33337 L 1643,691.33328 m 16,0 c 0.7735,0 0.1601,0.49786 -0.3334,0.33337 L 1659,691.33328 m -40,3 c 0.7735,0 0.1601,0.49786 -0.3334,0.33337 L 1619,694.33328 m -15,0.66669 -1,1 1,-1 m 11,0 -1,1 1,-1 m -39,3 -1,1 1,-1 m -18,2 -1,1 1,-1 m -11,1 1,3 h -1 v -3 m -24,1 v 4 h -4 c -10e-5,-2.85358 -1.6859,-1.66986 -4,-1 l 8,-3 m 15,0 v 2 l -2,-2 h 2 m -51,2 1,1 -1,-1 m 46,0 -1,1 1,-1 m -971.00004,1 1,2 h -2 l 1,-2 m 911.00004,3 v 2 h -2 v -2 h 2 m 8,0 -1,1 1,-1 m -22,2.33331 c 0.7733,0 0.1603,0.49792 -0.3334,0.33337 L 1459,710.33328 m -57,6 c 0.7733,0 0.1603,0.49792 -0.3334,0.33337 L 1402,716.33328 m -14.3334,1.33337 -0.3332,0.66663 0.3332,-0.66663 m 25.3334,-0.33337 0.3334,0.33337 c -0.4934,0.16449 -1.107,-0.33337 -0.3334,-0.33337 m -16,0.66669 -1,1 1,-1 m -27,1 4,4 -4,-4 m -8,1 -2,3 2,-3 m -35.3334,3.33331 0.6668,0.33337 -0.6668,-0.33337 m 22.3334,1.66669 1,2 h -2 l 1,-2 m -34,1.33331 c 0.7733,0 0.1603,0.49792 -0.3334,0.33337 L 1315,726.33328 m 21,-0.33331 1,2 -1,-2 m -31,1 -1,1 1,-1 m 5,2 -3,-2 3,2 m 5.6666,-0.33332 -0.3332,0.66663 0.3332,-0.66663 M 1295,728.99997 v 2 h -2 v -2 h 2 m -27,2 -1,1 1,-1 m -2,1 v 2 h -2 l 2,-2 m 5,0 v 2 h -2 l 2,-2 m 156,0 -1,1 1,-1 m -211,4 1,5 h -1 v -5 m 4,0 -2,2 v -2 h 2 m 28,1 -1,1 1,-1 m -16,1 -1,1 1,-1 m 2,0.33331 0.3334,0.33337 c -0.4934,0.16449 -1.107,-0.33337 -0.3334,-0.33337 m 189,-0.33331 -1,1 1,-1 m -215,1 1,2 h -2 l 1,-2 m -7,2 -1,1 1,-1 m -17,1 1,3 -1,-3 m -8.3334,3.66668 -0.3332,0.66663 0.3332,-0.66663 m -37.6666,1.66663 0.3334,0.33337 c -0.4934,0.16449 -1.107,-0.33337 -0.3334,-0.33337 m 17,-0.33331 -1,1 1,-1 m -27,2 -1,1 1,-1 m 8,1 -6,1 6,-1 m -511.00004,1 1,20 h -2 l -15,-17 16,-3 m 497.00004,0 -1,1 1,-1 m 5,1 -1,1 1,-1 m -28,3 1,2 h -2 l 1,-2 m 5,0 -1,1 1,-1 m -39,4 -1,1 1,-1 m -45,7 -1,1 1,-1 m 376,0 -1,1 1,-1 m -11,15 -1,1 1,-1 m -1207.00004,38 h 1 1 c 3.21609,-3.66602 10.58388,-1.57508 15,-1.16901 12.1532,1.11749 24.79616,0.16821 37,0.16901 44.61099,0.003 89.59006,3.69146 134,7.31482 11.36358,0.92712 22.67621,0.59063 34,2.10955 4.70929,0.63166 9.45865,0.14026 13,3.57563 h 1 c 7.75027,-4.48114 24.94784,0.44836 33,3 -8.04868,4.69146 -22.76059,3.26074 -32,4.1698 -21.39569,2.10485 -42.49738,4.42089 -64,5.91967 -57.10285,3.98035 -113.67694,7.97303 -171,6.81873 -20.12515,-0.40527 -40.48041,0.13403 -60.57562,-1.16748 -16.72207,-1.08301 -32.167133,-4.98364 -48.424381,-0.74072 l 1,-5 -23,-7 c 3.10227,-4.7323 11.52427,-8.05835 17,-7 4.36995,-5.76636 14.669188,-4.14447 21.089508,-5.38892 21.225123,-4.11407 44.292633,-6.21454 65.925153,-6.60107 6.27088,-0.11206 20.45009,-4.20008 24.98534,0.98999 m 1147.00004,0 v 1 h -3 l 3,-1 m 2.6666,1.66668 -0.3332,0.66663 0.3332,-0.66663 m -16.6666,5.33332 1,2 h -2 l 1,-2 m -4,5 -1,1 1,-1 m -10,4 -1,1 1,-1 m -15.3334,8.66662 -0.3332,0.66675 0.3332,-0.66675 m -723.66664,1.33338 -1,1 1,-1 m 716.00004,0 -1,1 1,-1 m -1,2.33337 0.3334,0.33325 c -0.4936,0.16449 -1.107,-0.33325 -0.3334,-0.33325 m -39,11.66663 v 3 l -47,13 v 4 h 5 v 1 l -6,1 v 1 c 4.3136,0.69128 8.7521,-0.0298 9,-5 l 3,3 10,-5 9,-3 -8,2 c 2.4552,-4.12928 13.6422,-10.20453 17,-5 l -8,3 c 4.23,-0.34601 8.4654,-0.62036 10,-5 l 40,-12 v -3 l -5,1 1,-5 -30,11 m -663.33336,-8.33338 -0.33337,0.66675 0.33337,-0.66675 M 1257,854.99997 l -1,1 1,-1 m -5,1.33337 0.3334,0.33325 c -0.4936,0.16455 -1.1067,-0.33325 -0.3334,-0.33325 m -1,1.66663 -1,1 1,-1 m -5,1 -2,2 v -2 h 2 m -5,2 -1,1 1,-1 m -3,1 -1,1 1,-1 m -10,5 -3,-2 3,2 m -544.00004,5 -1,6 11,-2 v -1 h -8 l -2,-3 m 522.00004,0 c -0.7404,4.25421 -2.9998,4.56616 -7,5 v -3 h 1 l 6,-2 m 2,0 v 3 h -1 l 1,-3 m -533.00004,5 h 7 v -3 c -3.27216,-0.96509 -5.14667,0.27472 -7,3 m 12,-1 -1,1 1,-1 m 2,1 v 3 l 12,1 c -1.73816,-5.23706 -7.31006,-4 -12,-4 m 484.00004,5 11,2 v -2 h -4 v -1 l 6,-2 c -3.8016,-2.05988 -10.3861,-0.43738 -13,3 m -469.00004,-3 2,4 5,-2 -7,-2 m 447.00004,12 4,-3 2,2 c 5.2291,-1.07874 13.8302,-0.60254 16,-6 l -2,-3 c -6.8131,1.08044 -16.2632,4.0039 -20,10 m -433.00004,-7 c 6.68677,9.76013 18.83874,-1.75757 5.02466,-1.0401 -1.73047,0.0899 -3.3609,0.60156 -5.02466,1.0401 m 449.00004,0 1,2 -1,-2 m -438.00004,1 v 3 h -1 l 1,-3 m 6,0 v 5 l 3,-2 5,1 5,3 c -2.44184,-5.40845 -7.61731,-5.95252 -13,-7 m 409.00004,4 1,5 5,-6 -6,1 m -390.00004,0 1,1 -1,-1 m 360.00004,6 v 1 l 2,4 c 3.3989,-0.914 7.18,-0.17316 8,-4 3.0111,0.98596 17.2002,-0.62189 14,-3 v -1 h 4 v -3 l -28,6 m -359.00004,-3 c 1.55566,1.81292 2.44446,1.8128 4,0 h -4 m 5,0 5,4 -1,-4 h -4 m 6,1 2,3 h 5 l -7,-3 m 11,1 4,5 -1,-5 h -3 m 317.00004,6 c 3.3547,2.38867 6.2641,2.74383 10,1 l 8,1 c 2.5084,-11.05066 -13.2008,-4.27088 -18,-2 m -308.00004,-4 7,6 c -0.65381,-4.44757 -2.6236,-5.69202 -7,-6 m 336.00004,0 -1,1 1,-1 m -325.00004,1 v 5 l 3,-1 -3,-4 m 6,3 v 2 l 4,1 1,-4 -5,1 m 269.00004,1 -2,7 5,-3 5,3 h 1 l 6,-2 -1,-5 h -14 m 17,-1 c 1.4296,3.63397 3.1728,4.31164 7,4 v -1 l -7,-3 m -276.00004,2 8,5 h 1 v -5 h -9 m 255.00004,1 c -4.3995,2.09094 -8.2999,0.91247 -12.9105,1.71991 -7.7133,1.35077 -14.9825,3.85431 -23.0895,4.17437 -6.2307,0.24598 -15.402,-0.58947 -20,4.10572 -5.6661,-3.96863 -26.63363,-4.19342 -28.00003,4 l 11,1 h 1 l 7.00003,-2 -1,-2 14,2 1,-3 c 8.5638,1.95349 28.7486,1.08166 36,-4 l 3,2 1,-3 c 4.2561,1.01001 12.3345,1.54162 11,-5 m 9,0 -1,1 1,-1 m -249.00004,1 -1,3 6,-1 8,4 v -5 l -13,-1 m 17,1 c 3.0448,7.42883 9.30023,5.51245 16,6 -2.4057,-3.81299 -5.81922,-3.62873 -10,-4 v 1 l 2,2 -3,-4 -5,-1 m 19,4 c 1.66235,4.1488 4.83642,4.45752 9,5 v -5 l -1,-1 -8,1 m 12,0 -1,4 h 1 v -4 m 3,5 10,-1 c -3.42993,-2.90088 -8.25098,-3.97107 -10,1 m 11,-1 v 1 l 7,-1 -1,3 17.00003,1 1,-4 h -24.00003 m 68.00003,5 21.99998,1 c 4.5755,-11.6095 -18.19338,-8.05432 -21.99998,-1 m 66.00001,-7 -1,1 1,-1 m 2,0 -1,1 1,-1 m -94.00001,8 h 5 l 2,-5 -1,-1 c -3.6968,1.03357 -4.9664,2.30316 -6,6 m 22,0 1,-3 c -1.4097,-0.62397 -16.4502,-4.26093 -11.9136,1.21606 1.8658,2.25256 8.1704,1.51697 10.9136,1.78394 m 19,-6 v 2 l -2,-2 h 2 m -52,4 4,-2 c -2.4123,-1.35486 -3.4324,-0.64881 -4,2 m -5,-2 1,1 -1,-1 m 31,0 -1,2 h -1 l -1,-2 h 3 m 22,0 -1,1 z"
       id="path1" />
  </g>
</svg>
